<svg xmlns="http://www.w3.org/2000/svg" viewBox="0 0 64 64" fill="none">
  <path fill="#E8E5DC" d="M4 13.5 21 6l22 7.5L60 6v44.5L43 58l-22-7.5L4 58V13.5Z"/>
  <path fill="#C5C4B8" d="m21 6 22 7.5V58l-22-7.5V6Z"/>
  <path fill="#98A27F" d="M4 36.5 21 29l22 7.5L60 29v21.5L43 58l-22-7.5L4 58V36.5Z" opacity=".55"/>
  <path stroke="#18261F" stroke-linejoin="round" stroke-width="2.5" d="M4 13.5 21 6l22 7.5L60 6v44.5L43 58l-22-7.5L4 58V13.5Z"/>
  <path stroke="#18261F" stroke-linecap="round" stroke-width="2.5" d="M21 6v44.5M43 13.5V58"/>
  <path stroke="#8D5948" stroke-dasharray="3 4" stroke-linecap="round" stroke-width="3" d="M10 45c7-13 16-4 23-15 4-7 9-9 17-8"/>
  <circle cx="10" cy="45" r="3.5" fill="#8D5948" stroke="#18261F" stroke-width="2"/>
  <path fill="#C67B59" stroke="#18261F" stroke-width="2" d="M54 17c0 5-6 11-6 11s-6-6-6-11a6 6 0 1 1 12 0Z"/>
  <circle cx="48" cy="17" r="2" fill="#F1EDE3"/>
</svg>
